<svg width="163" height="34" viewBox="0 0 163 34" fill="none" xmlns="http://www.w3.org/2000/svg">
<path d="M16.8289 15.542C15.1139 15.542 13.6133 16.9354 13.6133 18.7577C13.6133 20.4727 15.0067 21.9733 16.8289 21.9733C18.544 21.9733 20.0446 20.5799 20.0446 18.7577C20.0446 16.9354 18.544 15.542 16.8289 15.542Z" fill="#0C62FB"/>
<path d="M16.8286 0C7.50321 0 0 7.50321 0 16.8286C0 26.154 7.50321 33.6572 16.8286 33.6572C26.154 33.6572 33.6572 26.154 33.6572 16.8286C33.6572 7.50321 26.154 0 16.8286 0ZM25.7253 27.9762L23.9031 27.2259C19.4011 25.5109 14.3633 25.5109 9.75417 27.2259L7.93196 27.9762C7.18164 28.2978 6.53851 27.5475 6.75289 26.7972L14.8992 4.50192C15.5424 2.67972 18.1149 2.67972 18.758 4.50192L26.9044 26.7972C27.1187 27.5475 26.4756 28.1906 25.7253 27.9762Z" fill="#0C62FB"/>
<path d="M16.8286 0C7.50321 0 0 7.50321 0 16.8286C0 26.154 7.50321 33.6572 16.8286 33.6572C26.154 33.6572 33.6572 26.154 33.6572 16.8286C33.6572 7.50321 26.154 0 16.8286 0ZM25.7253 27.9762L23.9031 27.2259C19.4011 25.5109 14.3633 25.5109 9.75417 27.2259L7.93196 27.9762C7.18164 28.2978 6.53851 27.5475 6.75289 26.7972L14.8992 4.50192C15.5424 2.67972 18.1149 2.67972 18.758 4.50192L26.9044 26.7972C27.1187 27.5475 26.4756 28.1906 25.7253 27.9762Z" fill="#0C62FB"/>
<path d="M49.6263 17.6868L54.8786 17.1508V16.6149C54.8786 14.3639 53.4851 13.1848 51.2341 13.1848C48.876 13.1848 47.2682 14.3639 47.4825 16.1861H44.4813C44.4813 12.7561 47.3754 10.6123 51.4485 10.6123C55.4145 10.6123 57.987 12.7561 57.987 17.1508V26.5834H55.2001L54.9857 23.5821C54.1282 25.5115 51.6629 26.7978 48.9832 26.7978C45.9819 26.7978 43.9453 25.0828 43.9453 22.4031C43.9453 19.6162 45.9819 18.0083 49.6263 17.6868ZM54.8786 19.0802L50.3766 19.6162C48.2329 19.9377 47.161 20.688 47.161 21.9743C47.161 23.3678 48.2329 24.1181 49.9479 24.1181C52.9492 24.1181 54.8786 21.5456 54.8786 19.509V19.0802Z" fill="#0C62FB"/>
<path d="M76.53 26.4752H73.7431L73.5287 23.9027C72.4569 25.7249 70.2059 26.7968 67.5262 26.7968C62.8099 26.7968 59.8086 23.4739 59.8086 18.7576C59.8086 13.8269 63.1314 10.6113 67.7406 10.6113C70.0987 10.6113 72.2425 11.4688 73.4216 12.9694V3.8584H76.53V26.4752ZM73.4216 18.5432C73.4216 15.4348 71.2778 13.291 68.1693 13.291C64.9536 13.291 62.9171 15.4348 62.9171 18.7576C62.9171 22.0805 64.9537 24.1171 68.0621 24.1171C71.1706 24.1171 73.4216 22.1877 73.4216 18.972V18.5432Z" fill="#0C62FB"/>
<path d="M81.5694 21.7597C81.6766 23.3675 83.0701 24.3322 85.2138 24.3322C87.2504 24.3322 88.4295 23.4747 88.4295 22.0813C88.4295 20.9022 87.572 20.2591 86.3929 20.0447L83.3916 19.5087C80.2832 18.9728 78.7825 17.5793 78.7825 15.2212C78.7825 12.3271 81.2478 10.5049 84.8923 10.5049C88.5367 10.5049 91.002 12.3271 91.1092 15.3284H88.2151C88.1079 13.8277 86.8217 12.9702 84.8923 12.9702C83.0701 12.9702 81.891 13.8277 81.891 15.114C81.891 16.4003 82.8557 16.7218 84.1419 16.9362L87.3576 17.4721C90.1445 17.9009 91.538 19.6159 91.538 21.8669C91.538 24.761 88.9654 26.7976 85.1066 26.7976C81.2478 26.7976 78.6753 24.8682 78.4609 21.8669H81.5694V21.7597Z" fill="#0C62FB"/>
<path d="M101.4 26.7976C96.4696 26.7976 93.2539 23.5819 93.2539 18.6512C93.2539 13.8277 96.5768 10.5049 101.293 10.5049C105.688 10.5049 108.796 13.399 108.796 17.5793C108.796 17.9009 108.689 18.3297 108.689 18.8656H96.3624V19.2944C96.3624 22.4028 98.2918 24.1178 101.4 24.1178C103.437 24.1178 105.152 23.2603 105.795 21.7597H108.903C108.046 24.9754 105.152 26.7976 101.4 26.7976ZM105.473 16.7218C105.473 15.6499 105.045 14.7924 104.187 14.1493C103.33 13.5062 102.365 13.0774 101.079 13.0774C98.7205 13.0774 96.7911 14.4709 96.4696 16.7218H105.473Z" fill="#0C62FB"/>
<path d="M119.732 13.7208C119.41 13.7208 119.089 13.6136 118.767 13.6136C115.873 13.6136 114.48 15.7574 114.48 18.6515V26.369H111.371V10.8267H114.158L114.48 13.3992C115.23 11.577 116.838 10.6123 118.767 10.6123C119.196 10.6123 119.625 10.7195 119.839 10.7195V13.7208H119.732Z" fill="#0C62FB"/>
<path d="M130.449 26.4757H128.306L120.695 10.8262H124.125L129.378 22.2954L134.63 10.8262H137.953L130.449 26.4757Z" fill="#0C62FB"/>
<path d="M142.667 10.8262H139.559V26.3685H142.667V10.8262Z" fill="#0C62FB"/>
<path d="M162.174 18.6512C162.174 23.4747 158.637 26.7976 153.706 26.7976C148.776 26.7976 145.238 23.4747 145.238 18.6512C145.238 13.8277 148.776 10.5049 153.706 10.5049C158.637 10.6121 162.174 13.8277 162.174 18.6512ZM158.958 18.6512C158.958 15.4356 156.922 13.2918 153.813 13.2918C150.705 13.2918 148.561 15.4356 148.561 18.6512C148.561 21.8669 150.598 24.0107 153.813 24.0107C156.922 24.0107 158.958 21.8669 158.958 18.6512Z" fill="#0C62FB"/>
</svg>
